<?xml version="1.0" encoding="UTF-8" standalone="no"?>
<!-- Created with Inkscape (http://www.inkscape.org/) -->

<svg
   version="1.1"
   id="svg1"
   width="830.18298"
   height="760.87061"
   viewBox="0 0 830.18298 760.87061"
   sodipodi:docname="logo.svg"
   xml:space="preserve"
   inkscape:version="1.4.3 (0d15f75, 2025-12-25)"
   xmlns:inkscape="http://www.inkscape.org/namespaces/inkscape"
   xmlns:sodipodi="http://sodipodi.sourceforge.net/DTD/sodipodi-0.dtd"
   xmlns="http://www.w3.org/2000/svg"
   xmlns:svg="http://www.w3.org/2000/svg"><defs
     id="defs1" /><sodipodi:namedview
     id="namedview1"
     pagecolor="#ffffff"
     bordercolor="#000000"
     borderopacity="0.25"
     inkscape:showpageshadow="2"
     inkscape:pageopacity="0.0"
     inkscape:pagecheckerboard="0"
     inkscape:deskcolor="#d1d1d1"
     inkscape:zoom="0.80585314"
     inkscape:cx="331.32588"
     inkscape:cy="282.3095"
     inkscape:window-width="2560"
     inkscape:window-height="1369"
     inkscape:window-x="2552"
     inkscape:window-y="-8"
     inkscape:window-maximized="1"
     inkscape:current-layer="g1" /><g
     inkscape:groupmode="layer"
     inkscape:label="Image"
     id="g1"
     transform="translate(-76.369689,-111.86806)"><path
       style="fill:#182c42;fill-opacity:1;stroke-width:1.50966"
       d="m 236.39407,154.13865 v -12.08614 l 252.4913,0.38184 252.49129,0.38182 v 11.32248 11.32248 l -252.49129,0.38183 -252.4913,0.38184 z"
       id="path17" /><path
       style="fill:#1ec7ff;fill-opacity:0.996078;stroke-width:1.50966"
       d="m 844.84746,236.88551 c -2.87742,-3.08855 -3.07815,-5.20507 -3.07815,-32.45778 v -29.15378 h -31.5357 c -39.95833,0 -38.12662,1.01315 -38.29465,-21.18148 -0.23836,-31.48748 0.14915,-35.9491 3.40514,-39.20508 2.91591,-2.91592 5.03221,-3.01933 61.78665,-3.01933 h 58.76732 l 3.1289,3.97776 c 3.04005,3.86481 3.1289,5.59768 3.1289,61.03181 v 57.05407 l -3.97775,3.1289 c -3.6312,2.8563 -5.9936,3.1289 -27.11514,3.1289 -21.85779,0 -23.30762,-0.18273 -26.21552,-3.30399 z"
       id="path16" /><path
       style="fill:#1ec7ff;fill-opacity:1;stroke-width:1.50966"
       d="m 79.498589,236.21175 c -3.040056,-3.86482 -3.1289,-5.59769 -3.1289,-61.03182 v -57.05407 l 3.977754,-3.1289 c 3.8664,-3.04131 5.590964,-3.1289 61.607677,-3.1289 45.11238,0 58.21705,0.42932 60.33303,1.97655 3.95872,2.89469 5.07478,11.94695 4.35589,35.33007 -0.85961,27.96108 1.82241,26.09927 -37.59726,26.09927 h -30.78087 v 28.02803 c 0,27.2763 -0.79894,32.83863 -5.1324,35.73216 -0.91361,0.61002 -12.6512,1.11953 -26.08355,1.13225 l -24.422472,0.0231 z"
       id="path15" /><path
       style="fill:#1ec7ff;fill-opacity:1;stroke-width:1.50966"
       d="m 634.04482,359.42387 c -6.47446,-2.00386 -18.22952,-12.70675 -21.9365,-19.97305 -9.7667,-19.14432 -1.03297,-43.54868 18.80916,-52.55777 13.46774,-6.11488 33.50963,-2.16532 43.56756,8.58566 17.28682,18.478 12.11244,49.88903 -10.10124,61.31938 -6.83972,3.51946 -22.94726,4.91354 -30.33898,2.62578 z"
       id="path14" /><path
       style="fill:#1ec7ff;fill-opacity:1;stroke-width:1.50966"
       d="m 530.77854,434.05713 c -5.39705,-3.78681 -10.75408,-7.4246 -11.90452,-8.08398 -1.58836,-0.91037 0.87002,-4.94166 10.21628,-16.75272 24.21555,-30.60168 47.38749,-54.9892 64.11917,-67.48278 l 4.51785,-3.3735 4.14931,7.26517 c 2.28211,3.99584 6.66031,9.46985 9.7293,12.16446 l 5.58001,4.89932 -3.57502,2.49995 c -13.69326,9.57552 -32.84653,29.01564 -60.90525,61.81736 -6.56986,7.68042 -11.98325,13.95707 -12.02976,13.9481 -0.0465,-0.009 -4.50032,-3.11457 -9.89737,-6.90138 z"
       id="path13" /><path
       style="fill:#182c42;fill-opacity:1;stroke-width:1.50966"
       d="m 857.91548,459.63709 c -0.52984,-0.52985 -0.99218,-44.00817 -1.02741,-96.61849 l -0.064,-95.65515 h 12.09828 12.09828 v 96.61849 96.61849 h -11.07087 c -6.08898,0 -11.50437,-0.43351 -12.03422,-0.96334 z"
       id="path12" /><path
       style="fill:#1ec7ff;fill-opacity:1;stroke-width:1.50966"
       d="m 800.04221,500.87647 c -20.04986,-14.7848 -43.61013,-41.75505 -70.79111,-81.03696 -17.5525,-25.36686 -31.55506,-43.75437 -41.25199,-54.17022 l -6.15916,-6.6158 6.12163,-6.95455 c 3.3669,-3.82499 7.07027,-9.22495 8.22972,-11.9999 l 2.10808,-5.04534 7.08295,5.78355 c 8.75039,7.14509 25.26767,26.82649 39.87329,47.51157 30.04221,42.54703 54.58447,70.46564 73.86873,84.03105 5.39705,3.79652 10.06455,7.08372 10.37222,7.30488 0.30769,0.22115 -1.47184,2.98096 -3.95449,6.13294 -2.48265,3.15197 -6.6989,9.29744 -9.36947,13.65659 -2.67056,4.35916 -5.40191,7.92574 -6.06966,7.92574 -0.66774,0 -5.19509,-2.93559 -10.06074,-6.52355 z"
       id="path11" /><path
       style="fill:#182c42;stroke-width:1.50966;fill-opacity:1"
       d="m 481.25961,512.55058 c -38.50138,-19.18605 -25.07123,-76.89133 17.85888,-76.73409 7.11115,0.026 11.8314,0.99252 16.9504,3.47058 9.38537,4.54337 19.78346,16.24944 22.24582,25.04409 2.48865,8.88862 1.2468,22.65307 -2.75076,30.48893 -9.71421,19.04139 -35.06423,27.31825 -54.30434,17.73049 z"
       id="path10" /><path
       style="fill:#182c42;fill-opacity:1;stroke-width:1.50966"
       d="m 511.30708,494.9152 c 18.7917,-12.55368 9.46926,-41.06841 -13.31409,-40.72398 -9.21282,0.13934 -16.90907,6.32464 -19.91558,16.00585 -2.0146,6.48717 -1.95405,7.61652 0.75959,14.16424 5.53938,13.36594 20.824,18.33397 32.47008,10.55389 z"
       id="path9" /><path
       style="fill:#1ec7ff;fill-opacity:1;stroke-width:1.50966"
       d="m 855.34652,558.9181 c -17.33509,-5.68719 -30.18351,-22.88791 -30.18351,-40.40791 0,-15.548 12.43998,-33.56655 26.50319,-38.38828 21.04615,-7.21589 45.76167,3.99393 52.90495,23.99524 2.48408,6.95547 2.66416,21.47578 0.36165,29.16086 -2.26277,7.55247 -10.29248,16.87105 -18.86811,21.89671 -7.26518,4.25768 -23.22307,6.20235 -30.71817,3.74338 z"
       id="path8" /><path
       style="fill:#182c42;fill-opacity:1;stroke-width:1.50966"
       d="m 236.77149,576.43594 c -6.01979,-2.57794 -10.94507,-5.29053 -10.94507,-6.028 0,-1.302 28.20949,-35.23612 43.94655,-52.86475 22.51292,-25.21892 -14.53936,0.72594 -60.20517,42.15707 -17.31006,15.70486 -20.43325,17.73507 -25.37482,16.49483 -5.57759,-1.39989 -11.2048,-8.03466 -11.2048,-13.21107 0,-5.42257 2.32479,-9.13466 16.16997,-25.81944 16.51864,-19.90655 15.10207,-20.27134 -9.08323,-2.33903 -6.64661,4.92816 -13.45581,8.8064 -15.46181,8.8064 -8.40779,0 -15.56948,-15.07722 -11.81235,-24.86812 0.52132,-1.35855 7.50442,-7.7798 15.518,-14.26942 28.73294,-23.26875 51.91058,-47.28089 100.61935,-104.24208 53.84017,-62.96196 72.39637,-77.63856 94.80581,-74.9845 15.1959,1.79973 22.15457,6.80226 53.80982,38.68353 16.19115,16.30674 34.87324,33.65444 41.51576,38.55046 18.22296,13.43163 19.01129,15.14345 11.11545,24.13634 -5.8044,6.61085 -9.58278,8.74834 -13.35038,7.55253 -9.39064,-2.98047 -43.61638,-34.0935 -66.70307,-60.63665 -19.33144,-22.22569 -25.93547,-25.33468 -36.88938,-17.36649 -9.60656,6.98807 -35.42561,34.87948 -70.8033,76.48629 -38.18453,44.90787 -49.20422,58.48295 -48.24925,59.43793 1.44514,1.44514 19.42204,-15.84028 52.02341,-50.02235 18.68209,-19.58791 39.40223,-40.2599 46.04475,-45.93778 11.23252,-9.60129 21.71625,-17.07306 23.95539,-17.07306 2.77825,0 0.24558,8.18469 -4.86084,15.70851 -6.19003,9.12041 -32.7616,41.39282 -48.72175,59.17488 -14.29295,15.92454 -29.30138,34.34019 -27.42972,33.65683 2.53165,-0.92434 14.17946,-10.9447 35.80638,-30.80349 26.52735,-24.35856 41.01115,-35.46614 46.24629,-35.46614 5.47458,0 -9.50038,24.66414 -31.62272,52.08341 -6.69912,8.30315 -12.19454,15.60615 -12.21202,16.22889 -0.0175,0.62273 1.01809,1.13224 2.3013,1.13224 3.12217,0 9.7442,6.76743 9.7442,9.95814 0,1.40089 -9.36411,11.79183 -20.80914,23.091 -11.44505,11.29916 -27.8205,28.86596 -36.38991,39.03732 -8.84423,10.49757 -16.6547,18.43923 -18.06468,18.36814 -1.36617,-0.0688 -7.40924,-2.23444 -13.42902,-4.81237 z"
       id="path7" /><path
       style="fill:#182c42;fill-opacity:1;stroke-width:1.50966"
       d="m 291.51678,588.26616 c -6.2492,-2.3399 -9.83279,-5.87162 -9.83279,-9.69043 0,-1.2214 1.6741,-5.07737 3.72023,-8.56882 l 3.72022,-6.34809 23.83115,-0.79712 c 50.51189,-1.68955 84.31058,-14.2588 125.56097,-46.69434 6.1325,-4.82203 12.39285,-8.76734 13.91186,-8.76734 1.51902,0 5.33306,2.18104 8.47563,4.84677 3.14257,2.66572 5.99683,5.04344 6.3428,5.28383 0.34596,0.24037 0.62902,2.50033 0.62902,5.02214 0,5.99173 -7.22684,13.46162 -26.92234,27.8278 -23.96141,17.47777 -50.67975,29.39844 -80.01218,35.69828 -18.7771,4.03283 -60.9474,5.36147 -69.42457,2.18732 z"
       id="path6" /><path
       style="fill:#182c42;fill-opacity:1;stroke-width:1.50966"
       d="m 856.86595,650.20896 v -67.03434 l 7.1709,-0.52312 c 3.944,-0.28772 9.37879,-0.31024 12.07732,-0.05 l 4.9064,0.47306 v 67.08432 67.08439 h -12.07731 -12.07731 z"
       id="path5" /><path
       style="fill:#182c42;fill-opacity:1;stroke-width:1.50966"
       d="M 97.504985,492.30338 V 267.36345 H 109.5823 121.65961 V 492.30338 717.2433 H 109.5823 97.504985 Z"
       id="path4" /><path
       style="fill:#182c42;fill-opacity:1;stroke-width:1.50966"
       d="m 237.02312,844.18088 c -0.34599,-0.34596 -0.62905,-5.95059 -0.62905,-12.45473 v -11.8257 h 252.86871 252.86871 v 11.36985 c 0,8.85132 -0.51564,11.56774 -2.3278,12.26313 -2.59847,0.99713 -501.78804,1.63996 -502.78057,0.64745 z"
       id="path3" /><path
       style="fill:#1ec7ff;fill-opacity:1;stroke-width:1.50966"
       d="m 774.57708,869.70591 c -5.50544,-6.08345 -4.79356,-50.28354 0.90159,-55.97869 2.65674,-2.65673 5.39062,-2.88475 34.5877,-2.88475 h 31.70294 v -30.86251 c 0,-38.48726 -2.45418,-35.5627 29.84298,-35.5627 22.54755,0 23.22621,0.0937 26.83803,3.70554 l 3.70555,3.70553 v 57.15118 c 0,55.42843 -0.0928,57.25079 -3.07815,60.45519 -3.06569,3.29063 -3.31804,3.30399 -62.41707,3.30399 -57.50944,0 -59.42355,-0.0935 -62.08357,-3.03278 z"
       id="path2" /><path
       style="fill:#1ec7ff;fill-opacity:1;stroke-width:1.50966"
       d="m 79.498589,868.76094 c -3.038169,-3.8624 -3.1289,-5.60759 -3.1289,-60.18297 0,-54.57538 0.09073,-56.32056 3.1289,-60.18296 l 3.128899,-3.97775 h 24.690312 24.69031 l 3.1289,3.97775 c 2.92076,3.71315 3.1289,5.92241 3.1289,33.2126 v 29.23486 h 30.78087 c 40.81744,0 37.92175,-2.34748 37.86919,30.70004 -0.0353,22.23981 -0.34552,25.26614 -2.87589,28.06218 -2.77912,3.07088 -4.03033,3.134 -62.12442,3.134 H 82.627488 Z"
       id="path1" /><path
       style="fill:#1ec6ff;fill-opacity:0.996078;stroke-width:0.219366"
       d=""
       id="path19" /></g></svg>
